<?xml version="1.0" encoding="UTF-8" standalone="no"?>
<!-- Generator: Adobe Illustrator 19.0.0, SVG Export Plug-In . SVG Version: 6.00 Build 0)  -->

<svg
   xmlns:dc="http://purl.org/dc/elements/1.1/"
   xmlns:cc="http://creativecommons.org/ns#"
   xmlns:rdf="http://www.w3.org/1999/02/22-rdf-syntax-ns#"
   xmlns:svg="http://www.w3.org/2000/svg"
   xmlns="http://www.w3.org/2000/svg"
   xmlns:sodipodi="http://sodipodi.sourceforge.net/DTD/sodipodi-0.dtd"
   xmlns:inkscape="http://www.inkscape.org/namespaces/inkscape"
   version="1.1"
   id="Layer_1"
   x="0px"
   y="0px"
   viewBox="0 0 403 512"
   xml:space="preserve"
   width="403"
   height="512"
   sodipodi:docname="field.svg"
   inkscape:version="0.92.3 (2405546, 2018-03-11)"><metadata
   id="metadata21"><rdf:RDF><cc:Work
       rdf:about=""><dc:format>image/svg+xml</dc:format><dc:type
         rdf:resource="http://purl.org/dc/dcmitype/StillImage" /><dc:title></dc:title></cc:Work></rdf:RDF></metadata><defs
   id="defs19" /><sodipodi:namedview
   pagecolor="#ffffff"
   bordercolor="#666666"
   borderopacity="1"
   objecttolerance="10"
   gridtolerance="10"
   guidetolerance="10"
   inkscape:pageopacity="0"
   inkscape:pageshadow="2"
   inkscape:window-width="1920"
   inkscape:window-height="1017"
   id="namedview17"
   showgrid="false"
   fit-margin-top="0"
   fit-margin-left="0"
   fit-margin-right="0"
   fit-margin-bottom="0"
   inkscape:zoom="1.84375"
   inkscape:cx="188.28014"
   inkscape:cy="290.3157"
   inkscape:window-x="1912"
   inkscape:window-y="-8"
   inkscape:window-maximized="1"
   inkscape:current-layer="g14" />
<g
   id="g14"
   transform="translate(-54.565)">
	<g
   id="g8"
   transform="translate(5e-4)">
		<path
   style="fill:#46926f"
   d="m 417.24,8.209 -5.548,6.091 v 476.325 l 5.548,13.165 c 18.613,-3.515 32.695,-19.851 32.695,-39.486 V 47.695 c 0,-19.635 -14.082,-35.971 -32.695,-39.486 z"
   id="path2"
   inkscape:connector-curvature="0" />
		<path
   style="fill:#46926f"
   d="m 94.76,8.209 5.548,6.091 V 490.625 L 94.76,503.79 C 76.147,500.275 62.065,483.939 62.065,464.304 V 47.695 C 62.065,28.06 76.147,11.724 94.76,8.209 Z"
   id="path4"
   inkscape:connector-curvature="0" />
		<polygon
   style="fill:#58b78c"
   points="402.24,248.5 402.24,7.5 109.761,7.5 109.761,248.5 109.761,263.5 109.761,504.5 402.24,504.5 402.24,263.5 "
   id="polygon6" />
	</g>
	<g
   id="g12"
   transform="translate(0.0645)">
		<path
   d="m 102.251,512 c 0.003,0 0.006,0 0.01,0 0.002,0 0.003,0 0.005,0 h 307.469 c 0.002,0 0.003,0 0.005,0 0.003,0 0.006,0 0.01,0 26.295,-0.006 47.686,-21.399 47.686,-47.695 v -59.191 c 0,-4.142 -3.358,-7.5 -7.5,-7.5 -4.142,0 -7.5,3.358 -7.5,7.5 v 59.191 c 0,15.447 -10.771,28.417 -25.195,31.817 V 15.878 c 14.424,3.4 25.195,16.37 25.195,31.817 v 327.418 c 0,4.142 3.358,7.5 7.5,7.5 4.142,0 7.5,-3.358 7.5,-7.5 V 47.695 C 457.435,21.396 436.039,0 409.74,0 H 102.26 C 75.961,0 54.565,21.396 54.565,47.695 v 65.418 c 0,4.142 3.358,7.5 7.5,7.5 4.142,0 7.5,-3.358 7.5,-7.5 V 47.695 c 0,-15.447 10.771,-28.417 25.195,-31.817 v 480.244 c -14.424,-3.4 -25.195,-16.37 -25.195,-31.817 V 143.113 c 0,-4.142 -3.358,-7.5 -7.5,-7.5 -4.142,0 -7.5,3.358 -7.5,7.5 v 321.191 c 0,26.297 21.391,47.69 47.686,47.696 z M 179.042,86.561 c -8.57,0 -15.542,-6.972 -15.542,-15.542 V 15 h 38.567 v 35.78 c 0,4.143 3.358,7.5 7.5,7.5 h 92.866 c 4.142,0 7.5,-3.357 7.5,-7.5 V 15 H 348.5 v 56.019 c 0,8.57 -6.972,15.542 -15.542,15.542 z m 115.166,15 c -3.504,17.893 -19.305,31.434 -38.208,31.434 -18.903,0 -34.704,-13.541 -38.208,-31.434 z M 217.067,15 h 77.866 v 28.28 h -77.866 z m -38.025,86.561 H 202.6 c 3.663,26.2 26.207,46.434 53.4,46.434 27.193,0 49.737,-20.233 53.4,-46.434 h 23.558 c 16.841,0 30.542,-13.701 30.542,-30.542 V 15 h 38.739 V 248.5 H 342.285 C 338.47,204.24 301.231,169.387 256,169.387 c -45.231,0 -82.47,34.853 -86.285,79.113 H 109.76 V 15 h 38.74 v 56.019 c 0,16.841 13.701,30.542 30.542,30.542 z m 148.572,154.446 c -0.003,39.485 -32.128,71.607 -71.614,71.607 -39.488,0 -71.614,-32.125 -71.614,-71.614 0,-39.488 32.126,-71.613 71.614,-71.613 39.486,0 71.61,32.122 71.614,71.607 0,0.002 0,0.004 0,0.006 0,0.002 0,0.004 0,0.007 z M 109.76,263.5 h 59.954 c 3.815,44.26 41.054,79.114 86.285,79.114 45.231,0 82.471,-34.854 86.285,-79.114 h 59.954 V 497 H 363.5 v -56.019 c 0,-16.841 -13.701,-30.542 -30.542,-30.542 H 309.4 c -3.663,-26.2 -26.207,-46.433 -53.4,-46.433 -27.193,0 -49.737,20.233 -53.4,46.433 h -23.558 c -16.841,0 -30.542,13.701 -30.542,30.542 V 497 H 109.76 Z M 294.933,497 h -77.866 v -28.28 h 77.866 z m 15,0 v -35.78 c 0,-4.142 -3.358,-7.5 -7.5,-7.5 h -92.866 c -4.142,0 -7.5,3.358 -7.5,7.5 V 497 H 163.5 v -56.019 c 0,-8.57 6.972,-15.542 15.542,-15.542 h 153.916 c 8.57,0 15.542,6.972 15.542,15.542 V 497 Z m -92.141,-86.561 c 3.504,-17.892 19.305,-31.433 38.208,-31.433 18.903,0 34.704,13.541 38.208,31.433 z"
   id="path10"
   inkscape:connector-curvature="0" />
	</g>
</g>















</svg>