<?xml version="1.0" encoding="utf-8"?>
<!-- Generator: Adobe Illustrator 19.0.0, SVG Export Plug-In . SVG Version: 6.00 Build 0)  -->
<svg version="1.1" xmlns="http://www.w3.org/2000/svg" xmlns:xlink="http://www.w3.org/1999/xlink" x="0px" y="0px"
	 viewBox="0 0 453 562" style="enable-background:new 0 0 453 562;" xml:space="preserve">
<style type="text/css">
	.st0{fill:#45871A;}
	.st1{fill:#6AB21F;}
	.st2{fill:#FFFFFF;}
	.st3{fill:none;stroke:#FFFFFF;stroke-miterlimit:10;}
</style>
<g id="Colour_BG">
	<rect id="XMLID_234_" y="0" class="st0" width="453" height="56.2"/>
	<rect id="XMLID_241_" y="56.2" class="st1" width="453" height="56.2"/>
	<rect id="XMLID_242_" x="0" y="112.4" class="st0" width="453" height="56.2"/>
	<rect id="XMLID_243_" y="168.6" class="st1" width="453" height="56.2"/>
	<rect id="XMLID_250_" y="224.8" class="st0" width="453" height="56.2"/>
	<rect id="XMLID_252_" y="337.2" class="st0" width="453" height="56.2"/>
	<rect id="XMLID_253_" y="449.6" class="st0" width="453" height="56.2"/>
	<rect id="XMLID_254_" y="281" class="st1" width="453" height="56.2"/>
	<rect id="XMLID_264_" y="393.4" class="st1" width="453" height="56.2"/>
	<rect id="XMLID_269_" y="505.8" class="st1" width="453" height="56.2"/>
</g>
<g id="Layer_1">
	<g id="XMLID_1_">
		<g id="XMLID_275_">
			<path id="XMLID_279_" class="st2" d="M428.1,535c-13.3,0-26.7,0-40,0c-32,0-64.1,0-96.1,0c-38.8,0-77.6,0-116.3,0
				c-33.6,0-67.1,0-100.7,0c-11.2,0-22.3,0-33.5,0c-3.4,0-6.9,0-10.3,0c-1.3,0-4.2-0.6-5.4,0c-0.2,0.1-0.5,0-0.7,0
				c0.5,0.5,1,1,1.5,1.5c0-17,0-34,0-51c0-40.8,0-81.6,0-122.4c0-49.3,0-98.7,0-148c0-42.6,0-85.2,0-127.9c0-14,0-27.9,0-41.9
				c0-4.4,0-8.8,0-13.1c0-1.9,0.6-5.1,0-6.9c-0.1-0.2,0-0.6,0-0.9c-0.5,0.5-1,1-1.5,1.5c13.3,0,26.7,0,40,0c32,0,64.1,0,96.1,0
				c38.8,0,77.6,0,116.3,0c33.6,0,67.1,0,100.7,0c11.2,0,22.3,0,33.5,0c3.4,0,6.9,0,10.3,0c1.3,0,4.2,0.6,5.4,0c0.2-0.1,0.5,0,0.7,0
				c-0.5-0.5-1-1-1.5-1.5c0,17,0,34,0,51c0,40.8,0,81.6,0,122.4c0,49.3,0,98.7,0,148c0,42.6,0,85.2,0,127.9c0,14,0,27.9,0,41.9
				c0,6.5-0.7,13.5,0,20c0,0.3,0,0.6,0,0.9c0,1.9,3,1.9,3,0c0-17,0-34,0-51c0-40.8,0-81.6,0-122.4c0-49.3,0-98.7,0-148
				c0-42.6,0-85.2,0-127.9c0-14,0-27.9,0-41.9c0-6.5,0.7-13.5,0-20c0-0.3,0-0.6,0-0.9c0-0.8-0.7-1.5-1.5-1.5c-13.3,0-26.7,0-40,0
				c-32,0-64.1,0-96.1,0c-38.8,0-77.6,0-116.3,0c-33.6,0-67.1,0-100.7,0c-11.2,0-22.3,0-33.5,0c-5,0-10.7-0.7-15.7,0
				c-0.2,0-0.5,0-0.7,0c-0.8,0-1.5,0.7-1.5,1.5c0,17,0,34,0,51c0,40.8,0,81.6,0,122.4c0,49.3,0,98.7,0,148c0,42.6,0,85.2,0,127.9
				c0,14,0,27.9,0,41.9c0,6.5-0.7,13.5,0,20c0,0.3,0,0.6,0,0.9c0,0.8,0.7,1.5,1.5,1.5c13.3,0,26.7,0,40,0c32,0,64.1,0,96.1,0
				c38.8,0,77.6,0,116.3,0c33.6,0,67.1,0,100.7,0c11.2,0,22.3,0,33.5,0c5,0,10.8,0.8,15.7,0c0.2,0,0.5,0,0.7,0
				C430.1,538,430.1,535,428.1,535z"/>
		</g>
	</g>
	<g id="XMLID_5_">
		<g id="XMLID_35_">
			<path id="XMLID_4_" class="st2" d="M275.1,280.4c-0.3,20.3-12.9,38.8-32.2,45.7c-19,6.8-40.7,0.8-53.6-14.8
				c-13-15.6-14.7-38.4-4.3-55.8c10.4-17.3,31-26.6,50.8-22.8C258.6,237.1,274.8,257.4,275.1,280.4c0,1.9,3,1.9,3,0
				c-0.3-21.2-13.2-40.5-33.2-48.1c-20.5-7.8-44.4-1.4-58.2,15.6c-13.5,16.6-15.3,40.5-4.3,58.9c11,18.3,32.6,28.1,53.6,24.3
				c24.4-4.4,41.9-26.1,42.2-50.6C278.2,278.4,275.2,278.4,275.1,280.4z"/>
		</g>
	</g>
	<g id="XMLID_2_">
		<line id="XMLID_52_" class="st2" x1="25" y1="281" x2="428" y2="281"/>
		<g id="XMLID_30_">
			<path id="XMLID_3_" class="st2" d="M25,282c13.3,0,26.7,0,40,0c32,0,64.1,0,96.1,0c38.8,0,77.6,0,116.3,0c33.6,0,67.1,0,100.7,0
				c11.2,0,22.3,0,33.5,0c5,0,10.8,0.8,15.7,0c0.2,0,0.5,0,0.7,0c1.9,0,1.9-3,0-3c-13.3,0-26.7,0-40,0c-32,0-64.1,0-96.1,0
				c-38.8,0-77.6,0-116.3,0c-33.6,0-67.1,0-100.7,0c-11.2,0-22.3,0-33.5,0c-5,0-10.8-0.8-15.7,0c-0.2,0-0.5,0-0.7,0
				C23.1,279,23.1,282,25,282L25,282z"/>
		</g>
	</g>
	<g id="XMLID_6_">
		<g id="XMLID_45_">
			<path id="XMLID_9_" class="st2" d="M416.4,25c0.2,6.4,5.1,11.3,11.5,11.5c1.9,0.1,1.9-2.9,0-3c-4.7-0.1-8.4-3.8-8.5-8.5
				C419.3,23.1,416.3,23.1,416.4,25L416.4,25z"/>
		</g>
	</g>
	<g id="XMLID_7_">
		<g id="XMLID_39_">
			<path id="XMLID_8_" class="st2" d="M25,36c6.4-0.2,11.3-5.1,11.5-11.5c0.1-1.9-2.9-1.9-3,0c-0.1,4.7-3.8,8.4-8.5,8.5
				C23.1,33,23.1,36,25,36L25,36z"/>
		</g>
	</g>
	<g id="XMLID_10_">
		<g id="XMLID_57_">
			<path id="XMLID_14_" class="st2" d="M419.7,536c0.1-4.7,3.8-8.4,8.5-8.5c1.9-0.1,1.9-3.1,0-3c-6.4,0.2-11.3,5.1-11.5,11.5
				C416.7,538,419.7,538,419.7,536L419.7,536z"/>
		</g>
	</g>
	<g id="XMLID_11_">
		<g id="XMLID_222_">
			<path id="XMLID_13_" class="st2" d="M25.5,527.9c4.7,0.1,8.4,3.8,8.5,8.5c0.1,1.9,3.1,1.9,3,0c-0.2-6.4-5.1-11.3-11.5-11.5
				C23.5,524.8,23.5,527.8,25.5,527.9L25.5,527.9z"/>
		</g>
	</g>
	<g id="XMLID_192_">
		<g id="XMLID_40_">
			<path id="XMLID_53_" class="st2" d="M256.6,23c-20,0-40,0-60,0c0.5,0.5,1,1,1.5,1.5c0-6.7,0-13.3,0-20c-0.5,0.5-1,1-1.5,1.5
				c20,0,40,0,60,0c-0.5-0.5-1-1-1.5-1.5c0,6.7,0,13.3,0,20c0,1.9,3,1.9,3,0c0-6.7,0-13.3,0-20c0-0.8-0.7-1.5-1.5-1.5
				c-20,0-40,0-60,0c-0.8,0-1.5,0.7-1.5,1.5c0,6.7,0,13.3,0,20c0,0.8,0.7,1.5,1.5,1.5c20,0,40,0,60,0C258.6,26,258.6,23,256.6,23z"
				/>
		</g>
	</g>
	<g id="XMLID_195_">
		<g id="XMLID_232_">
			<path id="XMLID_238_" class="st2" d="M256.6,554.5c-20,0-40,0-60,0c0.5,0.5,1,1,1.5,1.5c0-6.7,0-13.3,0-20c-0.5,0.5-1,1-1.5,1.5
				c20,0,40,0,60,0c-0.5-0.5-1-1-1.5-1.5c0,6.7,0,13.3,0,20c0,1.9,3,1.9,3,0c0-6.7,0-13.3,0-20c0-0.8-0.7-1.5-1.5-1.5
				c-20,0-40,0-60,0c-0.8,0-1.5,0.7-1.5,1.5c0,6.7,0,13.3,0,20c0,0.8,0.7,1.5,1.5,1.5c20,0,40,0,60,0
				C258.6,557.5,258.6,554.5,256.6,554.5z"/>
		</g>
	</g>
	<g id="XMLID_18_">
		<g id="XMLID_112_">
			<path id="XMLID_113_" class="st2" d="M264.3,123.5c-1.1,1.4-2.2,2.8-3.4,4c-1.7,1.8-3.5,3.4-5.5,4.9c-2,1.5-4,2.9-6.2,4.1
				c-2.2,1.2-4.5,2.2-6.9,3.1c-2.4,0.8-4.8,1.5-7.2,1.9c-2.4,0.5-4.9,0.7-7.4,0.8c-2.5,0.1-4.9,0-7.3-0.3c-2.4-0.3-4.8-0.8-7.2-1.4
				s-4.7-1.5-6.9-2.5c-2.2-1-4.4-2.2-6.5-3.5c-2.1-1.3-4.1-2.8-5.9-4.4c-1.9-1.6-3.6-3.4-5.2-5.4l-4.1-0.5c0.7,1,1.3,1.9,1.8,2.4
				c1.7,2,3.5,3.9,5.5,5.6c1.9,1.7,4,3.3,6.2,4.7c2.2,1.4,4.4,2.6,6.8,3.7c2.3,1.1,4.8,2,7.3,2.7c2.5,0.7,5,1.2,7.6,1.6
				c2.6,0.3,5.2,0.5,7.8,0.4s5.3-0.3,7.9-0.8c3-0.5,6-1.4,8.8-2.4s5.5-2.4,8-3.9c2.5-1.5,4.9-3.3,7.1-5.2c2.2-1.9,4.3-4,6.1-6.3
				c0.4-0.5,0.7-1.1,0.9-1.8C266.5,124.6,264.7,123,264.3,123.5z"/>
		</g>
		<g id="XMLID_103_">
			<path id="XMLID_104_" class="st2" d="M264.3,123.5c-1.1,1.4-2.2,2.8-3.4,4c-1.7,1.8-3.5,3.4-5.5,4.9c-2,1.5-4,2.9-6.2,4.1
				c-2.2,1.2-4.5,2.2-6.9,3.1c-2.4,0.8-4.8,1.5-7.2,1.9c-2.4,0.5-4.9,0.7-7.4,0.8c-2.5,0.1-4.9,0-7.3-0.3c-2.4-0.3-4.8-0.8-7.2-1.4
				s-4.7-1.5-6.9-2.5c-2.2-1-4.4-2.2-6.5-3.5c-2.1-1.3-4.1-2.8-5.9-4.4c-1.9-1.6-3.6-3.4-5.2-5.4l-4.1-0.5c0.7,1,1.3,1.9,1.8,2.4
				c1.7,2,3.5,3.9,5.5,5.6c1.9,1.7,4,3.3,6.2,4.7c2.2,1.4,4.4,2.6,6.8,3.7c2.3,1.1,4.8,2,7.3,2.7c2.5,0.7,5,1.2,7.6,1.6
				c2.6,0.3,5.2,0.5,7.8,0.4s5.3-0.3,7.9-0.8c3-0.5,6-1.4,8.8-2.4s5.5-2.4,8-3.9c2.5-1.5,4.9-3.3,7.1-5.2c2.2-1.9,4.3-4,6.1-6.3
				c0.4-0.5,0.7-1.1,0.9-1.8C266.5,124.6,264.7,123,264.3,123.5z"/>
		</g>
	</g>
	<path id="XMLID_34_" class="st2" d="M190.5,435.3c9.1-11,22.9-17.8,37.5-17.8c15,0,28.4,7,37.2,17.8c0.2,0.2,0.4,0.5,0.6,0.7
		c0.3,0.3,4.3,0.6,3.8,0c-0.3-0.4-0.6-0.8-0.9-1.2c-7.3-9.7-17.9-16.8-30.5-19.3c-19.4-3.9-39.5,3.8-51.4,19.4
		c-0.3,0.4-0.6,0.7-0.8,1.1C185.5,436.8,190.1,435.8,190.5,435.3z"/>
	<g id="XMLID_193_">
		<g id="XMLID_223_">
			<path id="XMLID_273_" class="st2" d="M352.5,534.5c-28.2,0-56.4,0-84.7,0c-44.8,0-89.6,0-134.4,0c-10.3,0-20.7,0-31,0
				c0.5,0.5,1,1,1.5,1.5c0-29.2,0-58.4,0-87.6c0-4.1,0-8.3,0-12.4c-0.5,0.5-1,1-1.5,1.5c28.2,0,56.4,0,84.7,0c44.8,0,89.6,0,134.4,0
				c10.3,0,20.7,0,31,0c-0.5-0.5-1-1-1.5-1.5c0,29.2,0,58.4,0,87.6c0,4.1,0,8.3,0,12.4c0,1.9,3,1.9,3,0c0-29.2,0-58.4,0-87.6
				c0-4.1,0-8.3,0-12.4c0-0.8-0.7-1.5-1.5-1.5c-28.2,0-56.4,0-84.7,0c-44.8,0-89.6,0-134.4,0c-10.3,0-20.7,0-31,0
				c-0.8,0-1.5,0.7-1.5,1.5c0,29.2,0,58.4,0,87.6c0,4.1,0,8.3,0,12.4c0,0.8,0.7,1.5,1.5,1.5c28.2,0,56.4,0,84.7,0
				c44.8,0,89.6,0,134.4,0c10.3,0,20.7,0,31,0C354.4,537.5,354.4,534.5,352.5,534.5z"/>
		</g>
	</g>
	<g id="XMLID_199_">
		<g id="XMLID_256_">
			<path id="XMLID_21_" class="st2" d="M227.5,469.5c3.9,0,3.9-6,0-6C223.6,463.5,223.6,469.5,227.5,469.5L227.5,469.5z"/>
		</g>
	</g>
	<g id="XMLID_194_">
		<g id="XMLID_227_">
			<path id="XMLID_231_" class="st2" d="M289,534.5c-36.5,0-72.9,0-109.4,0c-5.2,0-10.4,0-15.6,0c0.5,0.5,1,1,1.5,1.5
				c0-13.3,0-26.7,0-40c-0.5,0.5-1,1-1.5,1.5c36.5,0,72.9,0,109.4,0c5.2,0,10.4,0,15.6,0c-0.5-0.5-1-1-1.5-1.5c0,13.3,0,26.7,0,40
				c0,1.9,3,1.9,3,0c0-13.3,0-26.7,0-40c0-0.8-0.7-1.5-1.5-1.5c-36.5,0-72.9,0-109.4,0c-5.2,0-10.4,0-15.6,0c-0.8,0-1.5,0.7-1.5,1.5
				c0,13.3,0,26.7,0,40c0,0.8,0.7,1.5,1.5,1.5c36.5,0,72.9,0,109.4,0c5.2,0,10.4,0,15.6,0C290.9,537.5,290.9,534.5,289,534.5z"/>
		</g>
	</g>
	<g id="XMLID_16_">
		<g id="XMLID_89_">
			<path id="XMLID_93_" class="st2" d="M351.6,123c-30.4,0-60.8,0-91.1,0c-32.7,0-65.3,0-98,0c-20.3,0-40.6,0-60.9,0
				c0.5,0.5,1,1,1.5,1.5c0-29.2,0-58.4,0-87.6c0-4.1,0-8.3,0-12.4c-0.5,0.5-1,1-1.5,1.5c28.2,0,56.4,0,84.7,0c44.8,0,89.6,0,134.4,0
				c10.3,0,20.7,0,31,0c-0.5-0.5-1-1-1.5-1.5c0,29.2,0,58.4,0,87.6c0,4.1,0,8.3,0,12.4c0,1.9,3,1.9,3,0c0-29.2,0-58.4,0-87.6
				c0-4.1,0-8.3,0-12.4c0-0.8-0.7-1.5-1.5-1.5c-28.2,0-56.4,0-84.7,0c-44.8,0-89.6,0-134.4,0c-10.3,0-20.7,0-31,0
				c-0.8,0-1.5,0.7-1.5,1.5c0,29.2,0,58.4,0,87.6c0,4.1,0,8.3,0,12.4c0,0.8,0.7,1.5,1.5,1.5c30.3,0,60.6,0,90.9,0
				c32.7,0,65.4,0,98.1,0c20.3,0,40.7,0,61,0C353.6,126,353.6,123,351.6,123z"/>
		</g>
	</g>
	<g id="XMLID_191_">
		<g id="XMLID_61_">
			<path id="XMLID_71_" class="st2" d="M289,63c-36.5,0-72.9,0-109.4,0c-5.2,0-10.4,0-15.6,0c0.5,0.5,1,1,1.5,1.5
				c0-13.3,0-26.7,0-40c-0.5,0.5-1,1-1.5,1.5c36.5,0,72.9,0,109.4,0c5.2,0,10.4,0,15.6,0c-0.5-0.5-1-1-1.5-1.5c0,13.3,0,26.7,0,40
				c0,1.9,3,1.9,3,0c0-13.3,0-26.7,0-40c0-0.8-0.7-1.5-1.5-1.5c-36.5,0-72.9,0-109.4,0c-5.2,0-10.4,0-15.6,0c-0.8,0-1.5,0.7-1.5,1.5
				c0,13.3,0,26.7,0,40c0,0.8,0.7,1.5,1.5,1.5c36.5,0,72.9,0,109.4,0c5.2,0,10.4,0,15.6,0C290.9,66,290.9,63,289,63z"/>
		</g>
	</g>
	<g id="XMLID_201_">
		<g id="XMLID_75_">
			<path id="XMLID_12_" class="st2" d="M225.5,96.5c3.9,0,3.9-6,0-6C221.6,90.5,221.6,96.5,225.5,96.5L225.5,96.5z"/>
		</g>
	</g>
	<path id="XMLID_17_" class="st3" d="M157.8,94"/>
</g>
</svg>
