<?xml version="1.0" encoding="UTF-8" standalone="no"?>
<!-- Generator: Adobe Illustrator 19.0.0, SVG Export Plug-In . SVG Version: 6.00 Build 0)  -->

<svg
   xmlns:dc="http://purl.org/dc/elements/1.1/"
   xmlns:cc="http://creativecommons.org/ns#"
   xmlns:rdf="http://www.w3.org/1999/02/22-rdf-syntax-ns#"
   xmlns:svg="http://www.w3.org/2000/svg"
   xmlns="http://www.w3.org/2000/svg"
   xmlns:sodipodi="http://sodipodi.sourceforge.net/DTD/sodipodi-0.dtd"
   xmlns:inkscape="http://www.inkscape.org/namespaces/inkscape"
   version="1.1"
   id="Capa_1"
   x="0px"
   y="0px"
   viewBox="0 0 512 451.38"
   xml:space="preserve"
   sodipodi:docname="shirt_yellow.svg"
   width="512"
   height="451.38"
   inkscape:version="0.92.3 (2405546, 2018-03-11)"><metadata
   id="metadata47"><rdf:RDF><cc:Work
       rdf:about=""><dc:format>image/svg+xml</dc:format><dc:type
         rdf:resource="http://purl.org/dc/dcmitype/StillImage" /><dc:title></dc:title></cc:Work></rdf:RDF></metadata><defs
   id="defs45" /><sodipodi:namedview
   pagecolor="#ffffff"
   bordercolor="#666666"
   borderopacity="1"
   objecttolerance="10"
   gridtolerance="10"
   guidetolerance="10"
   inkscape:pageopacity="0"
   inkscape:pageshadow="2"
   inkscape:window-width="934"
   inkscape:window-height="679"
   id="namedview43"
   showgrid="false"
   fit-margin-top="5"
   fit-margin-bottom="5"
   fit-margin-left="0"
   fit-margin-right="0"
   inkscape:zoom="0.65186406"
   inkscape:cx="236.30169"
   inkscape:cy="251.08876"
   inkscape:window-x="2339"
   inkscape:window-y="125"
   inkscape:window-maximized="0"
   inkscape:current-layer="Capa_1" />
<path
   style="fill:#75462e"
   d="M 335.448,5 C 283.877,22.214 228.122,22.214 176.551,5 v 0 123.586 h 158.897 z"
   id="path2"
   inkscape:connector-curvature="0" />
<path
   id="SVGCleanerId_0"
   style="fill:#de4c3c"
   d="M 397.241,5 H 335.448 C 335.448,48.882 299.882,84.448 256,84.448 212.118,84.448 176.552,48.882 176.552,5 H 114.759 L 0,93.276 61.793,172.724 114.759,133.883 V 446.38 H 397.242 V 133.883 L 450.208,172.724 512,93.276 Z"
   inkscape:connector-curvature="0" />
<g
   id="g6"
   transform="translate(0,-30.31)">
	<path
   id="SVGCleanerId_0_1_"
   style="fill:#e6f406;fill-opacity:1"
   d="m 397.241,35.31 h -61.793 c 0,43.882 -35.566,79.448 -79.448,79.448 -43.882,0 -79.448,-35.566 -79.448,-79.448 H 114.759 L 0,123.586 61.793,203.034 114.759,164.193 V 476.69 H 397.242 V 164.193 L 450.208,203.034 512,123.586 Z"
   inkscape:connector-curvature="0" />
</g>
<rect
   x="229.517"
   y="40.311001"
   style="fill:#ebebeb"
   width="52.966"
   height="17.655001"
   id="rect8" />
<path
   style="fill:#d4e305;fill-opacity:1"
   d="M 424.607,26.098 C 367.21,172.08 256.441,290.776 114.759,358.104 V 446.38 H 397.242 V 133.883 L 450.208,172.724 512,93.276 Z"
   id="path10"
   inkscape:connector-curvature="0" />
<g
   id="g12"
   transform="translate(0,-30.31)">
</g>
<g
   id="g14"
   transform="translate(0,-30.31)">
</g>
<g
   id="g16"
   transform="translate(0,-30.31)">
</g>
<g
   id="g18"
   transform="translate(0,-30.31)">
</g>
<g
   id="g20"
   transform="translate(0,-30.31)">
</g>
<g
   id="g22"
   transform="translate(0,-30.31)">
</g>
<g
   id="g24"
   transform="translate(0,-30.31)">
</g>
<g
   id="g26"
   transform="translate(0,-30.31)">
</g>
<g
   id="g28"
   transform="translate(0,-30.31)">
</g>
<g
   id="g30"
   transform="translate(0,-30.31)">
</g>
<g
   id="g32"
   transform="translate(0,-30.31)">
</g>
<g
   id="g34"
   transform="translate(0,-30.31)">
</g>
<g
   id="g36"
   transform="translate(0,-30.31)">
</g>
<g
   id="g38"
   transform="translate(0,-30.31)">
</g>
<g
   id="g40"
   transform="translate(0,-30.31)">
</g>
</svg>